{
  "extensionsUsed": [
    "KHR_materials_pbrSpecularGlossiness",
    "KHR_materials_unlit"
  ],
  "accessors": [
    {
      "bufferView": 0,
      "componentType": 5126,
      "count": 2,
      "type": "VEC3",
      "max": [
        3.7983298,
        6.007674,
        0.0
      ],
      "min": [
        -1.0469118,
        -3.4201467,
        0.0
      ]
    },
    {
      "bufferView": 1,
      "componentType": 5123,
      "count": 4,
      "type": "SCALAR",
      "max": [
        1.0
      ],
      "min": [
        0.0
      ]
    },
    {
      "bufferView": 2,
      "componentType": 5126,
      "count": 33,
      "type": "VEC3",
      "max": [
        -0.7754608,
        -3.3648548,
        0.0
      ],
      "min": [
        -1.7754607,
        -4.364855,
        0.0
      ]
    },
    {
      "bufferView": 3,
      "componentType": 5123,
      "count": 66,
      "type": "SCALAR",
      "max": [
        32.0
      ],
      "min": [
        0.0
      ]
    },
    {
      "bufferView": 4,
      "componentType": 5126,
      "count": 8,
      "type": "VEC3",
      "max": [
        0.05,
        0.05,
        0.0
      ],
      "min": [
        -0.05,
        -0.05,
        0.0
      ]
    },
    {
      "bufferView": 5,
      "componentType": 5126,
      "count": 8,
      "type": "VEC3",
      "max": [
        0.0,
        0.0,
        1.0
      ],
      "min": [
        0.0,
        0.0,
        -1.0
      ]
    },
    {
      "bufferView": 6,
      "componentType": 5123,
      "count": 12,
      "type": "SCALAR",
      "max": [
        7.0
      ],
      "min": [
        0.0
      ]
    },
    {
      "bufferView": 7,
      "componentType": 5126,
      "count": 8,
      "type": "VEC2",
      "max": [
        0.05,
        0.05
      ],
      "min": [
        -0.05,
        -0.05
      ]
    },
    {
      "bufferView": 8,
      "componentType": 5126,
      "count": 2,
      "type": "VEC3",
      "max": [
        10.958132,
        2.3280356,
        0.0
      ],
      "min": [
        6.11289,
        -7.099785,
        0.0
      ]
    },
    {
      "bufferView": 9,
      "componentType": 5123,
      "count": 4,
      "type": "SCALAR",
      "max": [
        1.0
      ],
      "min": [
        0.0
      ]
    },
    {
      "bufferView": 10,
      "componentType": 5126,
      "count": 33,
      "type": "VEC3",
      "max": [
        6.3843412,
        -7.044493,
        0.0
      ],
      "min": [
        5.3843412,
        -8.044494,
        0.0
      ]
    },
    {
      "bufferView": 11,
      "componentType": 5123,
      "count": 66,
      "type": "SCALAR",
      "max": [
        32.0
      ],
      "min": [
        0.0
      ]
    },
    {
      "bufferView": 12,
      "componentType": 5126,
      "count": 8,
      "type": "VEC3",
      "max": [
        0.05,
        0.05,
        0.0
      ],
      "min": [
        -0.05,
        -0.05,
        0.0
      ]
    },
    {
      "bufferView": 13,
      "componentType": 5126,
      "count": 8,
      "type": "VEC3",
      "max": [
        0.0,
        0.0,
        1.0
      ],
      "min": [
        0.0,
        0.0,
        -1.0
      ]
    },
    {
      "bufferView": 14,
      "componentType": 5123,
      "count": 12,
      "type": "SCALAR",
      "max": [
        7.0
      ],
      "min": [
        0.0
      ]
    },
    {
      "bufferView": 15,
      "componentType": 5126,
      "count": 8,
      "type": "VEC2",
      "max": [
        0.05,
        0.05
      ],
      "min": [
        -0.05,
        -0.05
      ]
    },
    {
      "bufferView": 16,
      "componentType": 5126,
      "count": 2,
      "type": "VEC3",
      "max": [
        18.117933,
        -1.3516027,
        0.0
      ],
      "min": [
        13.272692,
        -10.779424,
        0.0
      ]
    },
    {
      "bufferView": 17,
      "componentType": 5123,
      "count": 4,
      "type": "SCALAR",
      "max": [
        1.0
      ],
      "min": [
        0.0
      ]
    },
    {
      "bufferView": 18,
      "componentType": 5126,
      "count": 33,
      "type": "VEC3",
      "max": [
        13.544143,
        -10.724132,
        0.0
      ],
      "min": [
        12.544143,
        -11.724132,
        0.0
      ]
    },
    {
      "bufferView": 19,
      "componentType": 5123,
      "count": 66,
      "type": "SCALAR",
      "max": [
        32.0
      ],
      "min": [
        0.0
      ]
    },
    {
      "bufferView": 20,
      "componentType": 5126,
      "count": 8,
      "type": "VEC3",
      "max": [
        0.05,
        0.05,
        0.0
      ],
      "min": [
        -0.05,
        -0.05,
        0.0
      ]
    },
    {
      "bufferView": 21,
      "componentType": 5126,
      "count": 8,
      "type": "VEC3",
      "max": [
        0.0,
        0.0,
        1.0
      ],
      "min": [
        0.0,
        0.0,
        -1.0
      ]
    },
    {
      "bufferView": 22,
      "componentType": 5123,
      "count": 12,
      "type": "SCALAR",
      "max": [
        7.0
      ],
      "min": [
        0.0
      ]
    },
    {
      "bufferView": 23,
      "componentType": 5126,
      "count": 8,
      "type": "VEC2",
      "max": [
        0.05,
        0.05
      ],
      "min": [
        -0.05,
        -0.05
      ]
    },
    {
      "bufferView": 24,
      "componentType": 5126,
      "count": 2,
      "type": "VEC3",
      "max": [
        25.277735,
        -5.031241,
        0.0
      ],
      "min": [
        20.432493,
        -14.459062,
        0.0
      ]
    },
    {
      "bufferView": 25,
      "componentType": 5123,
      "count": 4,
      "type": "SCALAR",
      "max": [
        1.0
      ],
      "min": [
        0.0
      ]
    },
    {
      "bufferView": 26,
      "componentType": 5126,
      "count": 33,
      "type": "VEC3",
      "max": [
        20.703945,
        -14.4037695,
        0.0
      ],
      "min": [
        19.703945,
        -15.4037695,
        0.0
      ]
    },
    {
      "bufferView": 27,
      "componentType": 5123,
      "count": 66,
      "type": "SCALAR",
      "max": [
        32.0
      ],
      "min": [
        0.0
      ]
    },
    {
      "bufferView": 28,
      "componentType": 5126,
      "count": 8,
      "type": "VEC3",
      "max": [
        0.05,
        0.05,
        0.0
      ],
      "min": [
        -0.05,
        -0.05,
        0.0
      ]
    },
    {
      "bufferView": 29,
      "componentType": 5126,
      "count": 8,
      "type": "VEC3",
      "max": [
        0.0,
        0.0,
        1.0
      ],
      "min": [
        0.0,
        0.0,
        -1.0
      ]
    },
    {
      "bufferView": 30,
      "componentType": 5123,
      "count": 12,
      "type": "SCALAR",
      "max": [
        7.0
      ],
      "min": [
        0.0
      ]
    },
    {
      "bufferView": 31,
      "componentType": 5126,
      "count": 8,
      "type": "VEC2",
      "max": [
        0.05,
        0.05
      ],
      "min": [
        -0.05,
        -0.05
      ]
    },
    {
      "bufferView": 32,
      "componentType": 5126,
      "count": 2,
      "type": "VEC3",
      "max": [
        21.105759,
        -2.7468824,
        0.0
      ],
      "min": [
        -1.2630674,
        -14.242897,
        0.0
      ]
    },
    {
      "bufferView": 33,
      "componentType": 5123,
      "count": 4,
      "type": "SCALAR",
      "max": [
        1.0
      ],
      "min": [
        0.0
      ]
    },
    {
      "bufferView": 34,
      "componentType": 5126,
      "count": 33,
      "type": "VEC3",
      "max": [
        -1.2077756,
        -2.0183334,
        0.0
      ],
      "min": [
        -2.2077756,
        -3.0183334,
        0.0
      ]
    },
    {
      "bufferView": 35,
      "componentType": 5123,
      "count": 66,
      "type": "SCALAR",
      "max": [
        32.0
      ],
      "min": [
        0.0
      ]
    },
    {
      "bufferView": 36,
      "componentType": 5126,
      "count": 8,
      "type": "VEC3",
      "max": [
        0.05,
        0.05,
        0.0
      ],
      "min": [
        -0.05,
        -0.05,
        0.0
      ]
    },
    {
      "bufferView": 37,
      "componentType": 5126,
      "count": 8,
      "type": "VEC3",
      "max": [
        0.0,
        0.0,
        1.0
      ],
      "min": [
        0.0,
        0.0,
        -1.0
      ]
    },
    {
      "bufferView": 38,
      "componentType": 5123,
      "count": 12,
      "type": "SCALAR",
      "max": [
        7.0
      ],
      "min": [
        0.0
      ]
    },
    {
      "bufferView": 39,
      "componentType": 5126,
      "count": 8,
      "type": "VEC2",
      "max": [
        0.05,
        0.05
      ],
      "min": [
        -0.05,
        -0.05
      ]
    },
    {
      "bufferView": 40,
      "componentType": 5126,
      "count": 2,
      "type": "VEC3",
      "max": [
        25.493898,
        5.791515,
        0.0
      ],
      "min": [
        3.1250727,
        -5.7044997,
        0.0
      ]
    },
    {
      "bufferView": 41,
      "componentType": 5123,
      "count": 4,
      "type": "SCALAR",
      "max": [
        1.0
      ],
      "min": [
        0.0
      ]
    },
    {
      "bufferView": 42,
      "componentType": 5126,
      "count": 33,
      "type": "VEC3",
      "max": [
        3.1803646,
        6.520064,
        0.0
      ],
      "min": [
        2.1803646,
        5.520064,
        0.0
      ]
    },
    {
      "bufferView": 43,
      "componentType": 5123,
      "count": 66,
      "type": "SCALAR",
      "max": [
        32.0
      ],
      "min": [
        0.0
      ]
    },
    {
      "bufferView": 44,
      "componentType": 5126,
      "count": 8,
      "type": "VEC3",
      "max": [
        0.05,
        0.05,
        0.0
      ],
      "min": [
        -0.05,
        -0.05,
        0.0
      ]
    },
    {
      "bufferView": 45,
      "componentType": 5126,
      "count": 8,
      "type": "VEC3",
      "max": [
        0.0,
        0.0,
        1.0
      ],
      "min": [
        0.0,
        0.0,
        -1.0
      ]
    },
    {
      "bufferView": 46,
      "componentType": 5123,
      "count": 12,
      "type": "SCALAR",
      "max": [
        7.0
      ],
      "min": [
        0.0
      ]
    },
    {
      "bufferView": 47,
      "componentType": 5126,
      "count": 8,
      "type": "VEC2",
      "max": [
        0.05,
        0.05
      ],
      "min": [
        -0.05,
        -0.05
      ]
    }
  ],
  "asset": {
    "generator": "hypar-gltf",
    "version": "2.0"
  },
  "buffers": [
    {
      "uri": "CustomGridsTest_0.bin",
      "byteLength": 5040
    }
  ],
  "bufferViews": [
    {
      "buffer": 0,
      "byteLength": 24
    },
    {
      "buffer": 0,
      "byteOffset": 24,
      "byteLength": 8
    },
    {
      "buffer": 0,
      "byteOffset": 32,
      "byteLength": 396
    },
    {
      "buffer": 0,
      "byteOffset": 428,
      "byteLength": 132
    },
    {
      "buffer": 0,
      "byteOffset": 560,
      "byteLength": 96
    },
    {
      "buffer": 0,
      "byteOffset": 656,
      "byteLength": 96
    },
    {
      "buffer": 0,
      "byteOffset": 752,
      "byteLength": 24
    },
    {
      "buffer": 0,
      "byteOffset": 776,
      "byteLength": 64
    },
    {
      "buffer": 0,
      "byteOffset": 840,
      "byteLength": 24
    },
    {
      "buffer": 0,
      "byteOffset": 864,
      "byteLength": 8
    },
    {
      "buffer": 0,
      "byteOffset": 872,
      "byteLength": 396
    },
    {
      "buffer": 0,
      "byteOffset": 1268,
      "byteLength": 132
    },
    {
      "buffer": 0,
      "byteOffset": 1400,
      "byteLength": 96
    },
    {
      "buffer": 0,
      "byteOffset": 1496,
      "byteLength": 96
    },
    {
      "buffer": 0,
      "byteOffset": 1592,
      "byteLength": 24
    },
    {
      "buffer": 0,
      "byteOffset": 1616,
      "byteLength": 64
    },
    {
      "buffer": 0,
      "byteOffset": 1680,
      "byteLength": 24
    },
    {
      "buffer": 0,
      "byteOffset": 1704,
      "byteLength": 8
    },
    {
      "buffer": 0,
      "byteOffset": 1712,
      "byteLength": 396
    },
    {
      "buffer": 0,
      "byteOffset": 2108,
      "byteLength": 132
    },
    {
      "buffer": 0,
      "byteOffset": 2240,
      "byteLength": 96
    },
    {
      "buffer": 0,
      "byteOffset": 2336,
      "byteLength": 96
    },
    {
      "buffer": 0,
      "byteOffset": 2432,
      "byteLength": 24
    },
    {
      "buffer": 0,
      "byteOffset": 2456,
      "byteLength": 64
    },
    {
      "buffer": 0,
      "byteOffset": 2520,
      "byteLength": 24
    },
    {
      "buffer": 0,
      "byteOffset": 2544,
      "byteLength": 8
    },
    {
      "buffer": 0,
      "byteOffset": 2552,
      "byteLength": 396
    },
    {
      "buffer": 0,
      "byteOffset": 2948,
      "byteLength": 132
    },
    {
      "buffer": 0,
      "byteOffset": 3080,
      "byteLength": 96
    },
    {
      "buffer": 0,
      "byteOffset": 3176,
      "byteLength": 96
    },
    {
      "buffer": 0,
      "byteOffset": 3272,
      "byteLength": 24
    },
    {
      "buffer": 0,
      "byteOffset": 3296,
      "byteLength": 64
    },
    {
      "buffer": 0,
      "byteOffset": 3360,
      "byteLength": 24
    },
    {
      "buffer": 0,
      "byteOffset": 3384,
      "byteLength": 8
    },
    {
      "buffer": 0,
      "byteOffset": 3392,
      "byteLength": 396
    },
    {
      "buffer": 0,
      "byteOffset": 3788,
      "byteLength": 132
    },
    {
      "buffer": 0,
      "byteOffset": 3920,
      "byteLength": 96
    },
    {
      "buffer": 0,
      "byteOffset": 4016,
      "byteLength": 96
    },
    {
      "buffer": 0,
      "byteOffset": 4112,
      "byteLength": 24
    },
    {
      "buffer": 0,
      "byteOffset": 4136,
      "byteLength": 64
    },
    {
      "buffer": 0,
      "byteOffset": 4200,
      "byteLength": 24
    },
    {
      "buffer": 0,
      "byteOffset": 4224,
      "byteLength": 8
    },
    {
      "buffer": 0,
      "byteOffset": 4232,
      "byteLength": 396
    },
    {
      "buffer": 0,
      "byteOffset": 4628,
      "byteLength": 132
    },
    {
      "buffer": 0,
      "byteOffset": 4760,
      "byteLength": 96
    },
    {
      "buffer": 0,
      "byteOffset": 4856,
      "byteLength": 96
    },
    {
      "buffer": 0,
      "byteOffset": 4952,
      "byteLength": 24
    },
    {
      "buffer": 0,
      "byteOffset": 4976,
      "byteLength": 64
    }
  ],
  "materials": [
    {
      "name": "GridlineU",
      "extensions": {
        "KHR_materials_pbrSpecularGlossiness": {
          "diffuseFactor": [
            1.0,
            0.0,
            0.0,
            1.0
          ],
          "specularFactor": [
            0.1,
            0.1,
            0.1
          ],
          "glossinessFactor": 0.1
        }
      },
      "pbrMetallicRoughness": {
        "baseColorFactor": [
          1.0,
          0.0,
          0.0,
          1.0
        ]
      }
    },
    {
      "name": "trans",
      "extensions": {
        "KHR_materials_pbrSpecularGlossiness": {
          "diffuseFactor": [
            0.0,
            0.0,
            0.0,
            0.0
          ],
          "specularFactor": [
            0.0,
            0.0,
            0.0
          ],
          "glossinessFactor": 0.0
        }
      },
      "pbrMetallicRoughness": {
        "baseColorFactor": [
          0.0,
          0.0,
          0.0,
          0.0
        ]
      },
      "alphaMode": "BLEND"
    },
    {
      "name": "GridlineV",
      "extensions": {
        "KHR_materials_pbrSpecularGlossiness": {
          "diffuseFactor": [
            0.0,
            0.5,
            0.0,
            1.0
          ],
          "specularFactor": [
            0.1,
            0.1,
            0.1
          ],
          "glossinessFactor": 0.1
        }
      },
      "pbrMetallicRoughness": {
        "baseColorFactor": [
          0.0,
          0.5,
          0.0,
          1.0
        ]
      }
    }
  ],
  "meshes": [
    {
      "primitives": [
        {
          "attributes": {
            "POSITION": 0
          },
          "indices": 1,
          "material": 0,
          "mode": 1
        }
      ],
      "name": "0_curve"
    },
    {
      "primitives": [
        {
          "attributes": {
            "POSITION": 2
          },
          "indices": 3,
          "material": 0,
          "mode": 1
        }
      ],
      "name": "1_curve"
    },
    {
      "primitives": [
        {
          "attributes": {
            "NORMAL": 5,
            "POSITION": 4,
            "TEXCOORD_0": 7
          },
          "indices": 6,
          "material": 1
        }
      ],
      "name": "41f5e552-b7a8-457e-af6f-be865083a4bc_mesh"
    },
    {
      "primitives": [
        {
          "attributes": {
            "POSITION": 8
          },
          "indices": 9,
          "material": 0,
          "mode": 1
        }
      ],
      "name": "2_curve"
    },
    {
      "primitives": [
        {
          "attributes": {
            "POSITION": 10
          },
          "indices": 11,
          "material": 0,
          "mode": 1
        }
      ],
      "name": "3_curve"
    },
    {
      "primitives": [
        {
          "attributes": {
            "NORMAL": 13,
            "POSITION": 12,
            "TEXCOORD_0": 15
          },
          "indices": 14,
          "material": 1
        }
      ],
      "name": "18d2f891-270d-4d29-9203-92ca0db9cc49_mesh"
    },
    {
      "primitives": [
        {
          "attributes": {
            "POSITION": 16
          },
          "indices": 17,
          "material": 0,
          "mode": 1
        }
      ],
      "name": "4_curve"
    },
    {
      "primitives": [
        {
          "attributes": {
            "POSITION": 18
          },
          "indices": 19,
          "material": 0,
          "mode": 1
        }
      ],
      "name": "5_curve"
    },
    {
      "primitives": [
        {
          "attributes": {
            "NORMAL": 21,
            "POSITION": 20,
            "TEXCOORD_0": 23
          },
          "indices": 22,
          "material": 1
        }
      ],
      "name": "086b6d70-c75f-4d17-9c24-0edc6ca1eabb_mesh"
    },
    {
      "primitives": [
        {
          "attributes": {
            "POSITION": 24
          },
          "indices": 25,
          "material": 0,
          "mode": 1
        }
      ],
      "name": "6_curve"
    },
    {
      "primitives": [
        {
          "attributes": {
            "POSITION": 26
          },
          "indices": 27,
          "material": 0,
          "mode": 1
        }
      ],
      "name": "7_curve"
    },
    {
      "primitives": [
        {
          "attributes": {
            "NORMAL": 29,
            "POSITION": 28,
            "TEXCOORD_0": 31
          },
          "indices": 30,
          "material": 1
        }
      ],
      "name": "8a037a87-4ed9-4562-bc27-01e3bb76794a_mesh"
    },
    {
      "primitives": [
        {
          "attributes": {
            "POSITION": 32
          },
          "indices": 33,
          "material": 2,
          "mode": 1
        }
      ],
      "name": "8_curve"
    },
    {
      "primitives": [
        {
          "attributes": {
            "POSITION": 34
          },
          "indices": 35,
          "material": 2,
          "mode": 1
        }
      ],
      "name": "9_curve"
    },
    {
      "primitives": [
        {
          "attributes": {
            "NORMAL": 37,
            "POSITION": 36,
            "TEXCOORD_0": 39
          },
          "indices": 38,
          "material": 1
        }
      ],
      "name": "227b1b87-87a6-40bd-aff3-081436643623_mesh"
    },
    {
      "primitives": [
        {
          "attributes": {
            "POSITION": 40
          },
          "indices": 41,
          "material": 2,
          "mode": 1
        }
      ],
      "name": "10_curve"
    },
    {
      "primitives": [
        {
          "attributes": {
            "POSITION": 42
          },
          "indices": 43,
          "material": 2,
          "mode": 1
        }
      ],
      "name": "11_curve"
    },
    {
      "primitives": [
        {
          "attributes": {
            "NORMAL": 45,
            "POSITION": 44,
            "TEXCOORD_0": 47
          },
          "indices": 46,
          "material": 1
        }
      ],
      "name": "a210293a-cf36-46e9-9800-16ea6ab53274_mesh"
    }
  ],
  "nodes": [
    {
      "children": [
        1,
        3,
        5,
        7,
        9,
        11,
        13,
        15,
        17,
        19,
        21,
        23,
        25,
        27,
        29,
        31,
        33,
        35
      ],
      "matrix": [
        1.0,
        0.0,
        0.0,
        0.0,
        0.0,
        6.123234E-17,
        -1.0,
        0.0,
        0.0,
        1.0,
        6.123234E-17,
        0.0,
        0.0,
        0.0,
        0.0,
        1.0
      ]
    },
    {
      "children": [
        2
      ]
    },
    {
      "mesh": 0
    },
    {
      "children": [
        4
      ]
    },
    {
      "mesh": 1
    },
    {
      "children": [
        6
      ],
      "matrix": [
        1.0,
        0.0,
        0.0,
        0.0,
        0.0,
        1.0,
        0.0,
        0.0,
        0.0,
        0.0,
        1.0,
        0.0,
        -1.2754607,
        -3.8648548,
        0.0,
        1.0
      ]
    },
    {
      "mesh": 2
    },
    {
      "children": [
        8
      ]
    },
    {
      "mesh": 3
    },
    {
      "children": [
        10
      ]
    },
    {
      "mesh": 4
    },
    {
      "children": [
        12
      ],
      "matrix": [
        1.0,
        0.0,
        0.0,
        0.0,
        0.0,
        1.0,
        0.0,
        0.0,
        0.0,
        0.0,
        1.0,
        0.0,
        5.8843412,
        -7.544493,
        0.0,
        1.0
      ]
    },
    {
      "mesh": 5
    },
    {
      "children": [
        14
      ]
    },
    {
      "mesh": 6
    },
    {
      "children": [
        16
      ]
    },
    {
      "mesh": 7
    },
    {
      "children": [
        18
      ],
      "matrix": [
        1.0,
        0.0,
        0.0,
        0.0,
        0.0,
        1.0,
        0.0,
        0.0,
        0.0,
        0.0,
        1.0,
        0.0,
        13.044143,
        -11.224132,
        0.0,
        1.0
      ]
    },
    {
      "mesh": 8
    },
    {
      "children": [
        20
      ]
    },
    {
      "mesh": 9
    },
    {
      "children": [
        22
      ]
    },
    {
      "mesh": 10
    },
    {
      "children": [
        24
      ],
      "matrix": [
        1.0,
        0.0,
        0.0,
        0.0,
        0.0,
        1.0,
        0.0,
        0.0,
        0.0,
        0.0,
        1.0,
        0.0,
        20.203945,
        -14.9037695,
        0.0,
        1.0
      ]
    },
    {
      "mesh": 11
    },
    {
      "children": [
        26
      ]
    },
    {
      "mesh": 12
    },
    {
      "children": [
        28
      ]
    },
    {
      "mesh": 13
    },
    {
      "children": [
        30
      ],
      "matrix": [
        1.0,
        0.0,
        0.0,
        0.0,
        0.0,
        1.0,
        0.0,
        0.0,
        0.0,
        0.0,
        1.0,
        0.0,
        -1.7077756,
        -2.5183334,
        0.0,
        1.0
      ]
    },
    {
      "mesh": 14
    },
    {
      "children": [
        32
      ]
    },
    {
      "mesh": 15
    },
    {
      "children": [
        34
      ]
    },
    {
      "mesh": 16
    },
    {
      "children": [
        36
      ],
      "matrix": [
        1.0,
        0.0,
        0.0,
        0.0,
        0.0,
        1.0,
        0.0,
        0.0,
        0.0,
        0.0,
        1.0,
        0.0,
        2.6803646,
        6.020064,
        0.0,
        1.0
      ]
    },
    {
      "mesh": 17
    }
  ],
  "scene": 0,
  "scenes": [
    {
      "nodes": [
        0
      ]
    }
  ]
}