{
  "extensionsUsed": [
    "KHR_materials_pbrSpecularGlossiness",
    "KHR_materials_unlit"
  ],
  "accessors": [
    {
      "bufferView": 0,
      "componentType": 5126,
      "count": 148,
      "type": "VEC3",
      "max": [
        51.0,
        42.0,
        36.1
      ],
      "min": [
        21.0,
        12.0,
        36.0
      ]
    },
    {
      "bufferView": 1,
      "componentType": 5126,
      "count": 148,
      "type": "VEC3",
      "max": [
        1.0,
        1.0,
        1.0
      ],
      "min": [
        -1.0,
        -1.0,
        -1.0
      ]
    },
    {
      "bufferView": 2,
      "componentType": 5123,
      "count": 180,
      "type": "SCALAR",
      "max": [
        147.0
      ],
      "min": [
        0.0
      ]
    },
    {
      "bufferView": 3,
      "componentType": 5126,
      "count": 148,
      "type": "VEC2",
      "max": [
        51.0,
        42.0
      ],
      "min": [
        -51.0,
        12.0
      ]
    },
    {
      "bufferView": 4,
      "componentType": 5126,
      "count": 182,
      "type": "VEC3",
      "max": [
        47.0,
        24.0,
        20.1
      ],
      "min": [
        -15.0,
        3.6358614,
        20.0
      ]
    },
    {
      "bufferView": 5,
      "componentType": 5126,
      "count": 182,
      "type": "VEC3",
      "max": [
        1.0,
        1.0,
        1.0
      ],
      "min": [
        -1.0,
        -1.0,
        -1.0
      ]
    },
    {
      "bufferView": 6,
      "componentType": 5123,
      "count": 222,
      "type": "SCALAR",
      "max": [
        181.0
      ],
      "min": [
        0.0
      ]
    },
    {
      "bufferView": 7,
      "componentType": 5126,
      "count": 182,
      "type": "VEC2",
      "max": [
        47.0,
        24.0
      ],
      "min": [
        -47.0,
        3.6358614
      ]
    }
  ],
  "asset": {
    "generator": "hypar-gltf",
    "version": "2.0"
  },
  "buffers": [
    {
      "uri": "RoofFunctionTest_0.bin",
      "byteLength": 11364
    }
  ],
  "bufferViews": [
    {
      "buffer": 0,
      "byteLength": 1776
    },
    {
      "buffer": 0,
      "byteOffset": 1776,
      "byteLength": 1776
    },
    {
      "buffer": 0,
      "byteOffset": 3552,
      "byteLength": 360
    },
    {
      "buffer": 0,
      "byteOffset": 3912,
      "byteLength": 1184
    },
    {
      "buffer": 0,
      "byteOffset": 5096,
      "byteLength": 2184
    },
    {
      "buffer": 0,
      "byteOffset": 7280,
      "byteLength": 2184
    },
    {
      "buffer": 0,
      "byteOffset": 9464,
      "byteLength": 444
    },
    {
      "buffer": 0,
      "byteOffset": 9908,
      "byteLength": 1456
    }
  ],
  "materials": [
    {
      "name": "c58231b0-9254-42e0-bad3-22f7e2c71f66",
      "extensions": {
        "KHR_materials_pbrSpecularGlossiness": {
          "diffuseFactor": [
            0.7215686274509804,
            0.7215686274509804,
            0.7215686274509804,
            1.0
          ],
          "specularFactor": [
            0.1,
            0.1,
            0.1
          ],
          "glossinessFactor": 0.1
        }
      },
      "pbrMetallicRoughness": {
        "baseColorFactor": [
          0.72156864,
          0.72156864,
          0.72156864,
          1.0
        ]
      }
    }
  ],
  "meshes": [
    {
      "primitives": [
        {
          "attributes": {
            "NORMAL": 1,
            "POSITION": 0,
            "TEXCOORD_0": 3
          },
          "indices": 2,
          "material": 0
        }
      ],
      "name": "1335d8a1-3673-4785-9cc1-0e6086b5c66c_mesh"
    },
    {
      "primitives": [
        {
          "attributes": {
            "NORMAL": 5,
            "POSITION": 4,
            "TEXCOORD_0": 7
          },
          "indices": 6,
          "material": 0
        }
      ],
      "name": "db328ce1-244c-4998-8ee3-b1c44f4f320c_mesh"
    }
  ],
  "nodes": [
    {
      "children": [
        1,
        3
      ],
      "matrix": [
        1.0,
        0.0,
        0.0,
        0.0,
        0.0,
        6.123234E-17,
        -1.0,
        0.0,
        0.0,
        1.0,
        6.123234E-17,
        0.0,
        0.0,
        0.0,
        0.0,
        1.0
      ]
    },
    {
      "children": [
        2
      ]
    },
    {
      "mesh": 0
    },
    {
      "children": [
        4
      ]
    },
    {
      "mesh": 1
    }
  ],
  "scene": 0,
  "scenes": [
    {
      "nodes": [
        0
      ]
    }
  ]
}