{
  "extensionsUsed": [
    "KHR_materials_pbrSpecularGlossiness",
    "KHR_materials_unlit"
  ],
  "accessors": [
    {
      "bufferView": 0,
      "componentType": 5126,
      "count": 24,
      "type": "VEC3",
      "max": [
        90.204025,
        -191.51314,
        3.0
      ],
      "min": [
        -10.26202,
        -203.32678,
        0.0
      ]
    },
    {
      "bufferView": 1,
      "componentType": 5126,
      "count": 24,
      "type": "VEC3",
      "max": [
        0.9933249,
        0.9933249,
        1.0
      ],
      "min": [
        -0.9933249,
        -0.9933249,
        -1.0
      ]
    },
    {
      "bufferView": 2,
      "componentType": 5123,
      "count": 36,
      "type": "SCALAR",
      "max": [
        23.0
      ],
      "min": [
        0.0
      ]
    },
    {
      "bufferView": 3,
      "componentType": 5126,
      "count": 24,
      "type": "VEC2",
      "max": [
        200.78783,
        3.0
      ],
      "min": [
        -200.78783,
        -203.32678
      ]
    }
  ],
  "asset": {
    "generator": "hypar-gltf",
    "version": "2.0"
  },
  "buffers": [
    {
      "uri": "WallsTest_0.bin",
      "byteLength": 840
    }
  ],
  "bufferViews": [
    {
      "buffer": 0,
      "byteLength": 288
    },
    {
      "buffer": 0,
      "byteOffset": 288,
      "byteLength": 288
    },
    {
      "buffer": 0,
      "byteOffset": 576,
      "byteLength": 72
    },
    {
      "buffer": 0,
      "byteOffset": 648,
      "byteLength": 192
    }
  ],
  "materials": [
    {
      "name": "Wall",
      "extensions": {
        "KHR_materials_pbrSpecularGlossiness": {
          "diffuseFactor": [
            1.0,
            1.0,
            1.0,
            1.0
          ],
          "specularFactor": [
            0.1,
            0.1,
            0.1
          ],
          "glossinessFactor": 0.1
        }
      },
      "pbrMetallicRoughness": {}
    }
  ],
  "meshes": [
    {
      "primitives": [
        {
          "attributes": {
            "NORMAL": 1,
            "POSITION": 0,
            "TEXCOORD_0": 3
          },
          "indices": 2,
          "material": 0
        }
      ],
      "name": "4f9a1823-7a05-490c-b798-42f087e4c65f_mesh"
    }
  ],
  "nodes": [
    {
      "children": [
        1
      ],
      "matrix": [
        1.0,
        0.0,
        0.0,
        0.0,
        0.0,
        6.123234E-17,
        -1.0,
        0.0,
        0.0,
        1.0,
        6.123234E-17,
        0.0,
        0.0,
        0.0,
        0.0,
        1.0
      ]
    },
    {
      "children": [
        2
      ]
    },
    {
      "mesh": 0
    }
  ],
  "scene": 0,
  "scenes": [
    {
      "nodes": [
        0
      ]
    }
  ]
}